<?xml version="1.0" encoding="UTF-8"?>
<svg width="1074px" height="570px" viewBox="0 0 1074 570" version="1.1" xmlns="http://www.w3.org/2000/svg" xmlns:xlink="http://www.w3.org/1999/xlink">
    <!-- Generator: Sketch 50.2 (55047) - http://www.bohemiancoding.com/sketch -->
    <title>Artboard 2</title>
    <desc>Created with Sketch.</desc>
    <defs></defs>
    <g id="Artboard-2" stroke="none" stroke-width="1" fill="none" fill-rule="evenodd" stroke-linecap="square">
        <g id="Group-11" transform="translate(1.000000, 0.000000)" stroke="#2D6EDB" stroke-width="0.8">
            <g id="Group-5" transform="translate(0.000000, 26.000000)" opacity="0.35">
                <path d="M0,1 L1072,1" id="Line"></path>
                <path d="M0,51 L1072,51" id="Line"></path>
                <path d="M0,101 L1072,101" id="Line"></path>
                <path d="M0,151 L1072,151" id="Line"></path>
                <path d="M0,201 L1072,201" id="Line"></path>
                <path d="M0,251 L1072,251" id="Line"></path>
                <path d="M0,301 L1072,301" id="Line"></path>
                <path d="M0,351 L1072,351" id="Line"></path>
                <path d="M0,401 L1072,401" id="Line"></path>
                <path d="M0,451 L1072,451" id="Line"></path>
                <path d="M0,501 L1072,501" id="Line"></path>
            </g>
            <g id="Group-5" transform="translate(527.016760, 285.030726) rotate(90.000000) translate(-527.016760, -285.030726) translate(242.516760, -215.969274)" opacity="0.35">
                <path d="M0,501 L568.938547,501" id="Line"></path>
                <path d="M0,551 L568.938547,551" id="Line"></path>
                <path d="M0,601 L568.938547,601" id="Line"></path>
                <path d="M0,651 L568.938547,651" id="Line"></path>
                <path d="M0,701 L568.938547,701" id="Line"></path>
                <path d="M0,751 L568.938547,751" id="Line"></path>
                <path d="M0,801 L568.938547,801" id="Line"></path>
                <path d="M0,851 L568.938547,851" id="Line"></path>
                <path d="M0,901 L568.938547,901" id="Line"></path>
                <path d="M0,951 L568.938547,951" id="Line"></path>
                <path d="M0,1001 L568.938547,1001" id="Line"></path>
                <path d="M2.27373675e-13,1 L568.938547,1" id="Line"></path>
                <path d="M2.27373675e-13,51 L568.938547,51" id="Line"></path>
                <path d="M2.27373675e-13,101 L568.938547,101" id="Line"></path>
                <path d="M2.27373675e-13,151 L568.938547,151" id="Line"></path>
                <path d="M0,201 L568.938547,201" id="Line"></path>
                <path d="M0,251 L568.938547,251" id="Line"></path>
                <path d="M0,301 L568.938547,301" id="Line"></path>
                <path d="M0,351 L568.938547,351" id="Line"></path>
                <path d="M0,401 L568.938547,401" id="Line"></path>
                <path d="M0,451 L568.938547,451" id="Line"></path>
            </g>
            <g id="Group-5" transform="translate(551.970205, 285.030726) rotate(90.000000) translate(-551.970205, -285.030726) translate(267.470205, -215.969274)" opacity="0.25" stroke-dasharray="4">
                <path d="M0,501 L568.938547,501" id="Line"></path>
                <path d="M0,551 L568.938547,551" id="Line"></path>
                <path d="M0,601 L568.938547,601" id="Line"></path>
                <path d="M0,651 L568.938547,651" id="Line"></path>
                <path d="M0,701 L568.938547,701" id="Line"></path>
                <path d="M0,751 L568.938547,751" id="Line"></path>
                <path d="M0,801 L568.938547,801" id="Line"></path>
                <path d="M0,851 L568.938547,851" id="Line"></path>
                <path d="M0,901 L568.938547,901" id="Line"></path>
                <path d="M0,951 L568.938547,951" id="Line"></path>
                <path d="M0,1001 L568.938547,1001" id="Line"></path>
                <path d="M2.27373675e-13,1 L568.938547,1" id="Line"></path>
                <path d="M2.27373675e-13,51 L568.938547,51" id="Line"></path>
                <path d="M2.27373675e-13,101 L568.938547,101" id="Line"></path>
                <path d="M2.27373675e-13,151 L568.938547,151" id="Line"></path>
                <path d="M2.27373675e-13,201 L568.938547,201" id="Line"></path>
                <path d="M0,251 L568.938547,251" id="Line"></path>
                <path d="M0,301 L568.938547,301" id="Line"></path>
                <path d="M0,351 L568.938547,351" id="Line"></path>
                <path d="M0,401 L568.938547,401" id="Line"></path>
                <path d="M0,451 L568.938547,451" id="Line"></path>
            </g>
            <g id="Group-5" transform="translate(0.000000, 51.000000)" opacity="0.25" stroke-dasharray="4">
                <path d="M0,1 L1072,1" id="Line"></path>
                <path d="M0,51 L1072,51" id="Line"></path>
                <path d="M0,101 L1072,101" id="Line"></path>
                <path d="M0,151 L1072,151" id="Line"></path>
                <path d="M0,201 L1072,201" id="Line"></path>
                <path d="M0,251 L1072,251" id="Line"></path>
                <path d="M0,301 L1072,301" id="Line"></path>
                <path d="M0,351 L1072,351" id="Line"></path>
                <path d="M0,401 L1072,401" id="Line"></path>
                <path d="M0,451 L1072,451" id="Line"></path>
                <path d="M0,501 L1072,501" id="Line"></path>
            </g>
        </g>
    </g>
</svg>