<?xml version="1.0" encoding="UTF-8"?>
<svg width="18px" height="18px" viewBox="0 0 18 18" version="1.1" xmlns="http://www.w3.org/2000/svg" xmlns:xlink="http://www.w3.org/1999/xlink">
    <!-- Generator: Sketch 51 (57462) - http://www.bohemiancoding.com/sketch -->
    <title>右旋一度</title>
    <desc>Created with Sketch.</desc>
    <defs></defs>
    <g id="右旋一度" stroke="none" stroke-width="1" fill="none" fill-rule="evenodd">
        <g id="旋转按钮" transform="translate(9.500000, 9.000000) scale(-1, 1) translate(-9.500000, -9.000000) " fill="#2D6EDB">
            <g id="旋转" transform="translate(9.085714, 9.000000) scale(-1, 1) translate(-9.085714, -9.000000) translate(0.085714, 0.000000)">
                <g id="Group" fill-rule="nonzero">
                    <path d="M17.0799081,8.53931866 C17.0799081,8.81668638 16.8550571,9.04153734 16.5776894,9.04153734 C16.3003217,9.04153734 16.0754707,8.81668638 16.0754707,8.53931866 C16.0734575,4.69712678 13.1807944,1.47181811 9.36147117,1.05323399 C5.54214795,0.634649862 2.01957611,3.15687179 1.18542547,6.90742312 C0.35127483,10.6579744 2.47274181,14.4354728 6.10944455,15.6751646 C9.7461473,16.9148563 13.7331716,15.2196415 15.363505,11.7404957 C15.4814084,11.4893615 15.7805725,11.3813566 16.0317067,11.49926 C16.2828409,11.6171634 16.3908458,11.9163275 16.2729425,12.1674617 C14.4251883,16.1103265 9.90666253,18.031412 5.78521702,16.6263976 C1.66377151,15.2213832 -0.740421338,10.9403201 0.204964585,6.68983494 C1.15035051,2.4393498 5.14249126,-0.419051303 9.47092391,0.0553423278 C13.7993566,0.529735959 17.0776071,4.1849676 17.0799081,8.53931866 Z" id="Shape"></path>
                    <path d="M17.0799081,8.40589182 C17.0799081,8.77414993 16.8408072,9.07302609 16.5462007,9.07302607 C16.2515942,9.07302606 16.0124932,8.77414993 16.0124932,8.40589182 L16.0124932,3.33567135 C16.0124932,2.96741324 16.2515942,2.66853707 16.5462007,2.66853707 C16.8408071,2.66853707 17.0799081,2.96741322 17.0799081,3.33567135 L17.0799081,8.40589182 Z" id="Shape"></path>
                </g>
                <text id="1°-copy" font-family="NotoSansHans-Medium, Noto Sans S Chinese" font-size="8" font-weight="400">
                    <tspan x="5.77565569" y="11.3971484">1°</tspan>
                </text>
            </g>
        </g>
    </g>
</svg>