<svg xmlns="http://www.w3.org/2000/svg" viewBox="0 0 44.14 48.73"><defs><style>.cls-1{fill:#fff;}</style></defs><title>资源 2</title><g id="图层_2" data-name="图层 2"><g id="图层_1-2" data-name="图层 1"><g id="_编组_" data-name="&lt;编组&gt;"><g id="_编组_2" data-name="&lt;编组&gt;"><path id="_路径_" data-name="&lt;路径&gt;" class="cls-1" d="M44.14,17.31a7.35,7.35,0,0,0-1-3.66A7.24,7.24,0,0,0,36.82,10H16.39v5.68H36.81a1.63,1.63,0,0,1,1.43.82,1.69,1.69,0,0,1,.22.86,1.55,1.55,0,0,1-.22.78l-3.11,5.38h0l-2.78,4.82L24.42,42l-.07.1-.06.08a.86.86,0,0,1-.07.1l-.07.07-.08.09-.07.06-.09.08-.07.06-.1.06-.08.05-.1,0-.09.05-.1,0-.09,0-.1,0-.1,0L23,43l-.11,0h-.31a.41.41,0,0,1-.11,0h-.21l-.12,0L22,43l-.13,0-.07,0-.16-.06-.05,0-.2-.1a2.27,2.27,0,0,1-1-1.35,2.21,2.21,0,0,1,.23-1.69l13.6-23.31H27.64L18.45,32.16h0l-2.75,4.71a7.89,7.89,0,0,0,6.8,11.86,8.14,8.14,0,0,0,2-.25A8.85,8.85,0,0,0,26,48a7.89,7.89,0,0,0,3.33-3.05h0l1.19-2,0,0,0,0h0l6.73-11.63.23-.4h0L43.15,21A7.36,7.36,0,0,0,44.14,17.31Z"/><path id="_路径_2" data-name="&lt;路径&gt;" class="cls-1" d="M15.64,9.89h0a4.31,4.31,0,0,1,4.3-4.2h6a4.23,4.23,0,0,1,4.16,3.54h5.7A9.9,9.9,0,0,0,26,0H19.86A9.91,9.91,0,0,0,10,9.89V10h0V27.76a2.15,2.15,0,0,1-4.29,0V18.58A2.94,2.94,0,0,1,8.6,15.65h.61V10h-.6A8.6,8.6,0,0,0,0,18.58v9.17H0a7.82,7.82,0,0,0,15.63,0h0V16.32h0Z"/></g></g></g></g></svg>